<svg xmlns="http://www.w3.org/2000/svg" width="400" height="268.75"><path fill="none" stroke="#000" stroke-width="18" stroke-miterlimit="10" d="M380 245.466c0 1.751-2.238 3.169-5 3.169H25c-2.761 0-5-1.418-5-3.169V23.624c0-1.75 2.239-3.169 5-3.169h350c2.762 0 5 1.419 5 3.169v221.842z"/><path d="M20 65.341h360v60.227H20zM138.795 204.091a5 5 0 0 1-5 5H66.522a5 5 0 0 1-5-5v-21.818a5 5 0 0 1 5-5h67.273a5 5 0 0 1 5 5v21.818zM278.454 204.091a5 5 0 0 1-5 5H158.567a5 5 0 0 1-5-5v-21.818a5 5 0 0 1 5-5h114.887a5 5 0 0 1 5 5v21.818z"/></svg>
