<svg xmlns="http://www.w3.org/2000/svg" viewBox="0 0 512 512"><path d="M359.542 152.458c-4.167-4.167-10.917-4.167-15.083 0L256 240.917l-88.458-88.458c-4.167-4.167-10.917-4.167-15.083 0-4.167 4.167-4.167 10.917 0 15.083L240.917 256l-88.458 88.458c-4.167 4.167-4.167 10.917 0 15.083 2.083 2.083 4.813 3.125 7.542 3.125s5.458-1.042 7.542-3.125L256 271.083l88.458 88.458a10.634 10.634 0 0 0 7.542 3.125c2.729 0 5.458-1.042 7.542-3.125 4.167-4.167 4.167-10.917 0-15.083L271.083 256l88.458-88.458c4.167-4.167 4.167-10.917.001-15.084z"/></svg>
