<svg xmlns="http://www.w3.org/2000/svg" width="792" height="612"><path d="M447.64 122.401c-34.111 0-53.152 8.073-70.525 24.227-17.377 16.146-11.714 43.777-11.714 67.575v61.203h-61.198v61.198h61.203v153h61.198V336.6h45.901l15.302-61.199H426.6v-30.604c0-10.197.352-6.265 0-30.599-.335-21.835 13.222-30.599 25.342-30.599h24.383l11.478-57.798v-1.49c-4.146-.562-5.738-.491-14.347-1.067a399.608 399.608 0 0 0-25.816-.843zM536.64 0H255.361C164.181 0 90 74.181 90 165.361V446.64C90 537.819 164.181 612 255.361 612H536.64C627.819 612 702 537.819 702 446.64V165.361C702 74.181 627.819 0 536.64 0zm115.917 446.64c0 63.917-51.999 115.917-115.917 115.917H255.361c-63.917 0-115.918-51.999-115.918-115.917V165.361c0-63.917 52-115.918 115.918-115.918H536.64c63.917 0 115.917 52 115.917 115.918V446.64z"/></svg>
