<svg xmlns="http://www.w3.org/2000/svg" width="792" height="612"><path d="M536.64 0H255.361C164.181 0 90 74.181 90 165.361V446.64C90 537.819 164.181 612 255.361 612H536.64C627.819 612 702 537.819 702 446.64V165.361C702 74.181 627.819 0 536.64 0zm115.917 446.64c0 63.917-51.999 115.917-115.917 115.917H255.361c-63.917 0-115.918-51.999-115.918-115.917V165.361c0-63.917 52-115.918 115.918-115.918H536.64c63.917 0 115.917 52 115.917 115.918V446.64z"/><path d="M532.966 284.653c-4.351-29.341-17.737-55.935-38.711-76.909-20.975-20.973-47.567-34.36-76.908-38.71a137.11 137.11 0 0 0-40.26 0c-36.261 5.377-68.256 24.553-90.093 53.995-21.837 29.441-30.904 65.626-25.526 101.884 5.377 36.26 24.553 68.255 53.995 90.094 23.901 17.728 52.242 27.036 81.464 27.036 6.773 0 13.597-.499 20.419-1.512 36.261-5.378 68.256-24.553 90.094-53.995 21.837-29.44 30.904-65.623 25.526-101.883zm-122.872 106.97c-23.195 3.444-46.342-2.358-65.177-16.328s-31.101-34.438-34.54-57.634c-3.44-23.195 2.358-46.342 16.328-65.177 13.971-18.834 34.438-31.101 57.635-34.541a87.694 87.694 0 0 1 25.753.001c38.526 5.712 68.25 35.435 73.964 73.962 7.099 47.883-26.078 92.616-73.963 99.717zM568.184 133.816c-4.604-4.603-10.977-7.241-17.481-7.241s-12.877 2.637-17.481 7.241c-4.604 4.604-7.241 10.966-7.241 17.481s2.638 12.877 7.241 17.481c4.604 4.603 10.977 7.241 17.481 7.241s12.877-2.637 17.481-7.241c4.604-4.604 7.241-10.977 7.241-17.481 0-6.505-2.638-12.878-7.241-17.481z"/></svg>
