<svg xmlns="http://www.w3.org/2000/svg" width="674" height="166"><g fill="#FFF"><path d="M68.429 109.61h48.78v13.584H53.146V13.903h15.282v95.707zM140.516 23.628c0 2.677-.945 4.889-2.834 6.638-1.889 1.751-4.161 2.624-6.814 2.624s-4.898-.899-6.736-2.701c-1.838-1.799-2.757-3.987-2.757-6.561 0-2.675.919-4.913 2.757-6.715 1.838-1.799 4.083-2.702 6.736-2.702s4.925.902 6.814 2.702c1.888 1.802 2.834 4.041 2.834 6.715zm-2.316 99.566h-14.51V50.025h14.51v73.169zM190.219 61.911h-16.98v61.283h-14.51V61.911h-14.51V50.025h14.51V34.743c0-4.322.487-8.309 1.466-11.963.977-3.651 2.571-6.816 4.786-9.493 2.212-2.675 5.041-4.786 8.49-6.329 3.446-1.544 7.641-2.315 12.581-2.315 3.498 0 6.534.362 9.107 1.081l-1.698 12.503a41.346 41.346 0 0 0-3.396-.772c-1.134-.205-2.419-.309-3.859-.309-2.778 0-5.017.49-6.715 1.466-1.698.979-3.01 2.292-3.937 3.937-.926 1.647-1.543 3.526-1.852 5.634a45.254 45.254 0 0 0-.463 6.561v15.282h16.98v11.885zM264.314 85.992v2.47c0 .825-.053 1.647-.154 2.47h-58.196c.101 3.068.796 5.955 2.084 8.661a22.788 22.788 0 0 0 5.171 7.053c2.161 1.992 4.655 3.55 7.487 4.674 2.829 1.124 5.839 1.686 9.03 1.686 4.94 0 9.209-1.081 12.812-3.242 3.601-2.161 6.43-4.786 8.49-7.873l10.188 8.181c-3.912 5.186-8.517 9.004-13.816 11.455-5.301 2.448-11.191 3.673-17.675 3.673-5.557 0-10.704-.926-15.437-2.779-4.734-1.852-8.799-4.45-12.195-7.795-3.396-3.343-6.073-7.383-8.027-12.118-1.956-4.732-2.933-9.98-2.933-15.745 0-5.659.953-10.883 2.861-15.668 1.908-4.785 4.563-8.876 7.966-12.272s7.427-6.044 12.067-7.95c4.641-1.903 9.641-2.856 15.005-2.856 5.362 0 10.234.875 14.619 2.625 4.383 1.751 8.095 4.271 11.139 7.564 3.042 3.294 5.388 7.282 7.038 11.963 1.652 4.685 2.476 9.957 2.476 15.823zm-14.819-5.866c-.104-2.88-.593-5.582-1.466-8.104-.875-2.521-2.161-4.708-3.859-6.561-1.698-1.852-3.809-3.319-6.329-4.399-2.523-1.081-5.48-1.621-8.876-1.621-3.087 0-5.996.54-8.722 1.621-2.728 1.081-5.094 2.547-7.101 4.399-2.007 1.853-3.654 4.04-4.939 6.561a20.887 20.887 0 0 0-2.238 8.104h43.53zM316.181 68.549c-1.647-2.675-3.963-4.862-6.947-6.561-2.986-1.698-6.329-2.547-10.034-2.547-1.647 0-3.295.181-4.939.54-1.647.362-3.114.926-4.4 1.698-1.288.771-2.315 1.751-3.087 2.933-.772 1.185-1.158 2.651-1.158 4.399 0 3.087 1.389 5.379 4.167 6.87 2.779 1.493 6.947 2.855 12.504 4.09 3.497.825 6.739 1.802 9.725 2.933 2.983 1.134 5.581 2.547 7.795 4.245 2.212 1.698 3.936 3.731 5.171 6.098 1.235 2.368 1.852 5.147 1.852 8.335 0 4.322-.825 7.977-2.47 10.96-1.647 2.986-3.835 5.43-6.561 7.333-2.728 1.905-5.842 3.268-9.339 4.091a47.097 47.097 0 0 1-10.805 1.235c-5.557 0-10.987-1.081-16.286-3.242-5.302-2.161-9.701-5.454-13.198-9.879l10.342-8.799c1.954 2.882 4.655 5.301 8.104 7.255 3.446 1.957 7.229 2.933 11.346 2.933a25.49 25.49 0 0 0 5.326-.54c1.698-.359 3.242-.951 4.631-1.775a9.535 9.535 0 0 0 3.319-3.242c.822-1.336 1.235-3.034 1.235-5.094 0-3.396-1.621-5.917-4.862-7.564-3.242-1.645-8.003-3.188-14.279-4.631a87.546 87.546 0 0 1-7.487-2.238 24.978 24.978 0 0 1-6.869-3.627c-2.06-1.544-3.731-3.473-5.017-5.789-1.288-2.316-1.93-5.171-1.93-8.567 0-3.91.796-7.279 2.393-10.111 1.595-2.83 3.678-5.145 6.252-6.947 2.571-1.799 5.504-3.138 8.799-4.014a39.578 39.578 0 0 1 10.188-1.312c5.249 0 10.316 1.03 15.205 3.087 4.887 2.06 8.669 5.043 11.346 8.953l-10.032 8.491z"/><path d="M373.294 61.911h-19.45v38.013c0 4.411.822 7.566 2.47 9.464 1.646 1.898 4.27 2.846 7.873 2.846 1.336 0 2.778-.14 4.322-.424 1.544-.282 2.933-.707 4.168-1.274l.463 11.886c-1.751.618-3.681 1.105-5.789 1.467a39.07 39.07 0 0 1-6.561.54c-6.896 0-12.171-1.903-15.822-5.711-3.654-3.806-5.48-9.518-5.48-17.135V61.911H325.44V50.025h14.047V29.031h14.356v20.994h19.45v11.886z"/><path d="M408.334 107.449h.31l20.222-57.424h15.437l-35.504 90.458c-1.235 3.087-2.574 5.839-4.014 8.259-1.442 2.416-3.141 4.477-5.095 6.174-1.956 1.698-4.244 3.011-6.869 3.937-2.624.927-5.737 1.39-9.339 1.39-1.544 0-3.114-.077-4.708-.231a33.176 33.176 0 0 1-4.862-.85l1.389-12.812c2.47.822 4.887 1.234 7.256 1.234 3.806 0 6.638-1.057 8.49-3.164 1.852-2.11 3.55-5.121 5.094-9.031l4.631-12.195-31.336-73.169h16.208l22.69 57.424zM465.449 123.194h-14.51V6.494h14.51v116.7zM551.431 85.992v2.47c0 .825-.053 1.647-.154 2.47H493.08c.102 3.068.796 5.955 2.084 8.661a22.807 22.807 0 0 0 5.172 7.053c2.161 1.992 4.654 3.55 7.486 4.674 2.829 1.124 5.84 1.686 9.03 1.686 4.939 0 9.209-1.081 12.812-3.242 3.602-2.161 6.431-4.786 8.49-7.873l10.188 8.181c-3.913 5.186-8.517 9.004-13.816 11.455-5.301 2.448-11.191 3.673-17.675 3.673-5.557 0-10.704-.926-15.437-2.779-4.734-1.852-8.799-4.45-12.194-7.795-3.396-3.343-6.074-7.383-8.027-12.118-1.956-4.732-2.933-9.98-2.933-15.745 0-5.659.952-10.883 2.86-15.668 1.907-4.785 4.563-8.876 7.967-12.272s7.426-6.044 12.066-7.95c4.641-1.903 9.641-2.856 15.005-2.856 5.362 0 10.234.875 14.619 2.625 4.383 1.751 8.095 4.271 11.139 7.564 3.041 3.294 5.389 7.282 7.038 11.963 1.651 4.685 2.477 9.957 2.477 15.823zm-14.82-5.866c-.104-2.88-.593-5.582-1.466-8.104-.876-2.521-2.161-4.708-3.859-6.561-1.698-1.852-3.809-3.319-6.329-4.399-2.523-1.081-5.48-1.621-8.876-1.621-3.088 0-5.996.54-8.722 1.621-2.729 1.081-5.095 2.547-7.101 4.399-2.007 1.853-3.654 4.04-4.94 6.561-1.288 2.523-2.033 5.225-2.238 8.104h43.531z"/></g><g fill="#FFF"><path d="M577.488 92.474c-.562-.777-1.326-1.413-2.29-1.909-.964-.495-2.049-.743-3.255-.743-.643 0-1.292.087-1.948.261-.656.174-1.252.456-1.788.844s-.971.871-1.306 1.446c-.335.576-.502 1.266-.502 2.069 0 .777.153 1.426.462 1.949.308.522.724.964 1.245 1.326.522.362 1.139.67 1.849.924.709.255 1.467.516 2.27.784.965.295 1.942.629 2.934 1.004.99.375 1.888.871 2.691 1.486a7.327 7.327 0 0 1 1.969 2.31c.509.924.764 2.096.764 3.516 0 1.474-.275 2.752-.823 3.837a7.876 7.876 0 0 1-2.19 2.692c-.91.71-1.962 1.239-3.153 1.587a13.055 13.055 0 0 1-3.677.522c-1.795 0-3.529-.348-5.203-1.044s-3.06-1.728-4.158-3.094l3.094-2.611c.669.991 1.567 1.794 2.692 2.411s2.343.924 3.656.924c.669 0 1.339-.094 2.009-.281a5.647 5.647 0 0 0 1.828-.884 4.873 4.873 0 0 0 1.346-1.507c.348-.603.522-1.332.522-2.189s-.181-1.573-.543-2.149a4.792 4.792 0 0 0-1.466-1.467 9.703 9.703 0 0 0-2.15-1.024 151.02 151.02 0 0 0-2.591-.864 22.41 22.41 0 0 1-2.692-.984 9.303 9.303 0 0 1-2.37-1.487 6.865 6.865 0 0 1-1.688-2.229c-.429-.884-.643-1.982-.643-3.294 0-1.419.287-2.638.863-3.656a7.873 7.873 0 0 1 2.25-2.531 9.387 9.387 0 0 1 3.134-1.466 13.703 13.703 0 0 1 3.516-.462c1.661 0 3.215.295 4.661.884 1.446.589 2.611 1.379 3.495 2.37l-2.814 2.729zM598.099 99.706h-5.062v9.894c0 1.148.215 1.969.644 2.463.428.494 1.111.741 2.049.741.348 0 .724-.037 1.125-.11s.764-.184 1.085-.332l.12 3.094a9.183 9.183 0 0 1-1.507.381 10.1 10.1 0 0 1-1.707.141c-1.795 0-3.168-.495-4.118-1.486-.951-.991-1.427-2.477-1.427-4.46V99.706h-3.656v-3.094h3.656v-5.464h3.736v5.464h5.062v3.094zM624.294 106.094c0 1.473-.261 2.826-.783 4.058a9.638 9.638 0 0 1-2.169 3.194 9.811 9.811 0 0 1-3.274 2.089c-1.26.496-2.612.744-4.059.744s-2.799-.248-4.058-.744c-1.26-.495-2.344-1.191-3.255-2.089a9.8 9.8 0 0 1-2.149-3.194c-.521-1.231-.783-2.584-.783-4.058s.262-2.819.783-4.038a9.638 9.638 0 0 1 2.149-3.154c.911-.884 1.995-1.573 3.255-2.069 1.259-.495 2.611-.743 4.058-.743s2.799.248 4.059.743a9.982 9.982 0 0 1 3.274 2.069 9.495 9.495 0 0 1 2.169 3.154c.522 1.219.783 2.565.783 4.038zm-3.937.02c0-.908-.142-1.776-.424-2.604a6.572 6.572 0 0 0-1.229-2.183 5.922 5.922 0 0 0-1.995-1.502c-.793-.374-1.7-.562-2.721-.562-1.021 0-1.929.188-2.721.562a5.903 5.903 0 0 0-1.995 1.502 6.572 6.572 0 0 0-1.229 2.183 8.021 8.021 0 0 0-.423 2.604c0 .908.141 1.776.423 2.604a6.8 6.8 0 0 0 1.229 2.203 5.778 5.778 0 0 0 1.995 1.522c.792.374 1.699.561 2.721.561 1.021 0 1.928-.187 2.721-.561a5.797 5.797 0 0 0 1.995-1.522 6.836 6.836 0 0 0 1.229-2.203 7.995 7.995 0 0 0 .424-2.604zM632.489 98.741a39.17 39.17 0 0 0-.12-2.129h3.576c.053.482.093 1.038.12 1.667.026.63.04 1.146.04 1.547h.121c.535-1.125 1.318-2.029 2.35-2.712s2.19-1.024 3.476-1.024c.589 0 1.085.054 1.486.161l-.16 3.496a7.108 7.108 0 0 0-1.728-.201c-.911 0-1.701.168-2.371.502a4.823 4.823 0 0 0-1.667 1.346 5.66 5.66 0 0 0-.984 1.949 8.206 8.206 0 0 0-.321 2.31v10.004h-3.777V100.71a64.24 64.24 0 0 0-.041-1.969zM667.163 105.973v.643c0 .215-.014.429-.04.643h-15.146c.026.798.207 1.55.542 2.254s.783 1.317 1.346 1.835 1.212.924 1.949 1.217c.736.292 1.52.438 2.35.438 1.286 0 2.397-.281 3.335-.844s1.674-1.245 2.21-2.049l2.651 2.129c-1.018 1.35-2.216 2.343-3.596 2.981-1.38.637-2.913.956-4.601.956-1.446 0-2.785-.241-4.018-.723-1.232-.482-2.29-1.158-3.174-2.029-.884-.87-1.581-1.921-2.089-3.154-.51-1.231-.764-2.598-.764-4.098 0-1.473.248-2.833.744-4.078.497-1.245 1.188-2.31 2.074-3.194s1.933-1.573 3.141-2.069c1.208-.495 2.509-.743 3.905-.743s2.664.228 3.805.683a7.854 7.854 0 0 1 2.899 1.969c.791.857 1.402 1.895 1.832 3.114.43 1.22.645 2.592.645 4.119zm-3.856-1.527a7.208 7.208 0 0 0-.382-2.109 4.85 4.85 0 0 0-1.005-1.708c-.441-.482-.991-.864-1.647-1.145s-1.426-.422-2.31-.422c-.804 0-1.561.141-2.271.422s-1.325.663-1.848 1.145-.951 1.052-1.286 1.708a5.44 5.44 0 0 0-.582 2.109h11.331z"/></g><g fill="#FFF"><path d="M39.871 110.168v3.861H15.652v8.853h-3.394v-21.567h3.394v8.853h24.219zM24.193 91.799c-.91-.442-1.69-1.196-2.34-2.262-.65-1.065-.976-2.262-.976-3.588 0-1.195.202-2.223.604-3.081a6.241 6.241 0 0 1 1.619-2.145 6.577 6.577 0 0 1 2.379-1.268c.91-.273 1.885-.409 2.925-.409H39.87v3.666H29.628c-.756 0-1.473.059-2.15.175-.678.117-1.276.332-1.798.644s-.938.735-1.251 1.268c-.313.533-.47 1.229-.47 2.086 0 1.457.554 2.652 1.662 3.588 1.107.936 2.587 1.404 4.438 1.404h9.812v3.666H10.387v-3.666h13.807v-.078zM30.472 52.643h.624a5.2 5.2 0 0 1 .624.039v14.703a5.45 5.45 0 0 0 2.188-.527 5.757 5.757 0 0 0 1.782-1.306 6.122 6.122 0 0 0 1.607-4.174c0-1.248-.272-2.326-.818-3.237-.547-.91-1.209-1.625-1.989-2.145l2.066-2.574c1.311.988 2.275 2.151 2.895 3.49.618 1.339.928 2.828.928 4.465 0 1.404-.233 2.705-.702 3.9-.468 1.196-1.124 2.223-1.969 3.081-.845.858-1.866 1.535-3.062 2.028-1.196.494-2.522.741-3.979.741-1.43 0-2.749-.241-3.958-.723s-2.243-1.153-3.101-2.013a9.23 9.23 0 0 1-2.009-3.049c-.48-1.172-.722-2.436-.722-3.791s.222-2.586.663-3.694a7.62 7.62 0 0 1 1.911-2.814c.832-.769 1.84-1.361 3.022-1.778 1.185-.413 2.517-.622 3.999-.622zm-1.482 3.744c-.728.026-1.41.15-2.048.371a4.698 4.698 0 0 0-1.657.975 4.57 4.57 0 0 0-1.111 1.599c-.273.638-.41 1.385-.41 2.243 0 .78.137 1.515.41 2.204a5.72 5.72 0 0 0 1.111 1.794 5.866 5.866 0 0 0 1.657 1.248c.638.325 1.32.514 2.048.565V56.387z"/></g></svg>
