<?xml version="1.0" encoding="utf-8"?>
<!-- Generator: Adobe Illustrator 16.0.0, SVG Export Plug-In . SVG Version: 6.00 Build 0)  -->
<!DOCTYPE svg PUBLIC "-//W3C//DTD SVG 1.1//EN" "http://www.w3.org/Graphics/SVG/1.1/DTD/svg11.dtd">
<svg version="1.1" id="Layer_1" xmlns="http://www.w3.org/2000/svg" xmlns:xlink="http://www.w3.org/1999/xlink" x="0px" y="0px"
	 width="862.5px" height="166px" viewBox="-188.5 0 862.5 166" enable-background="new -188.5 0 862.5 166" xml:space="preserve">
<path d="M68.429,109.609h48.78v13.584H53.146V13.903h15.282L68.429,109.609L68.429,109.609z M140.516,23.628
	c0,2.677-0.945,4.889-2.834,6.638c-1.889,1.751-4.161,2.624-6.814,2.624c-2.653,0-4.898-0.899-6.736-2.701
	c-1.838-1.799-2.757-3.987-2.757-6.561c0-2.675,0.919-4.913,2.757-6.715c1.838-1.799,4.083-2.702,6.736-2.702
	c2.653,0,4.925,0.902,6.814,2.702C139.57,18.715,140.516,20.954,140.516,23.628z M138.2,123.193h-14.51V50.025h14.51V123.193z
	 M190.219,61.911h-16.979v61.282h-14.51V61.911h-14.51V50.025h14.51V34.743c0-4.322,0.487-8.309,1.466-11.963
	c0.977-3.651,2.571-6.816,4.786-9.493c2.212-2.675,5.041-4.786,8.49-6.329c3.446-1.544,7.641-2.315,12.581-2.315
	c3.498,0,6.534,0.362,9.107,1.081l-1.698,12.503c-1.121-0.305-2.253-0.562-3.396-0.772c-1.134-0.205-2.419-0.309-3.859-0.309
	c-2.778,0-5.017,0.49-6.715,1.466c-1.698,0.979-3.01,2.292-3.937,3.937c-0.926,1.647-1.543,3.526-1.852,5.634
	c-0.313,2.173-0.468,4.366-0.463,6.561v15.282h16.979V61.911z M264.314,85.992v2.47c0,0.825-0.053,1.647-0.154,2.47h-58.196
	c0.101,3.068,0.796,5.955,2.084,8.661c1.252,2.663,3.008,5.058,5.171,7.054c2.161,1.992,4.655,3.549,7.487,4.674
	c2.829,1.123,5.839,1.686,9.03,1.686c4.94,0,9.209-1.081,12.812-3.242c3.601-2.16,6.43-4.785,8.49-7.873l10.188,8.182
	c-3.912,5.186-8.517,9.004-13.816,11.455c-5.301,2.447-11.191,3.673-17.675,3.673c-5.557,0-10.704-0.927-15.437-2.779
	c-4.734-1.853-8.799-4.45-12.195-7.795c-3.396-3.343-6.073-7.383-8.027-12.118c-1.956-4.732-2.933-9.98-2.933-15.744
	c0-5.66,0.953-10.884,2.861-15.668c1.908-4.785,4.563-8.876,7.966-12.272c3.403-3.396,7.427-6.044,12.067-7.95
	c4.641-1.903,9.641-2.856,15.005-2.856c5.362,0,10.234,0.875,14.619,2.625c4.383,1.751,8.095,4.271,11.139,7.564
	c3.042,3.294,5.388,7.282,7.038,11.963C263.49,74.854,264.314,80.126,264.314,85.992L264.314,85.992z M249.495,80.126
	c-0.104-2.88-0.593-5.582-1.466-8.104c-0.875-2.521-2.161-4.708-3.859-6.561c-1.698-1.852-3.809-3.319-6.329-4.399
	c-2.523-1.081-5.48-1.621-8.876-1.621c-3.087,0-5.996,0.54-8.722,1.621c-2.728,1.081-5.094,2.547-7.101,4.399
	c-2.007,1.853-3.654,4.04-4.939,6.561c-1.288,2.522-2.049,5.279-2.238,8.104H249.495z M316.181,68.549
	c-1.647-2.675-3.963-4.862-6.947-6.561c-2.986-1.698-6.329-2.547-10.034-2.547c-1.647,0-3.295,0.181-4.939,0.54
	c-1.646,0.362-3.114,0.926-4.4,1.698c-1.288,0.771-2.315,1.751-3.087,2.933c-0.772,1.185-1.158,2.651-1.158,4.399
	c0,3.087,1.389,5.379,4.167,6.87c2.779,1.493,6.947,2.855,12.504,4.09c3.497,0.825,6.739,1.802,9.725,2.933
	c2.983,1.134,5.581,2.547,7.795,4.245c2.212,1.699,3.936,3.731,5.171,6.099c1.235,2.368,1.852,5.147,1.852,8.335
	c0,4.322-0.825,7.977-2.47,10.96c-1.647,2.985-3.835,5.431-6.561,7.333c-2.728,1.905-5.842,3.268-9.339,4.091
	c-3.542,0.827-7.167,1.242-10.805,1.235c-5.557,0-10.987-1.081-16.286-3.242c-5.302-2.161-9.701-5.454-13.198-9.879l10.342-8.799
	c1.954,2.882,4.655,5.301,8.104,7.255c3.446,1.957,7.229,2.933,11.346,2.933c1.79,0.008,3.575-0.174,5.326-0.539
	c1.698-0.359,3.242-0.951,4.631-1.775c1.356-0.791,2.497-1.904,3.319-3.242c0.822-1.336,1.235-3.034,1.235-5.094
	c0-3.396-1.621-5.918-4.862-7.564c-3.242-1.645-8.003-3.188-14.279-4.631c-2.528-0.635-5.026-1.381-7.487-2.238
	c-2.465-0.844-4.783-2.066-6.869-3.627c-2.06-1.544-3.731-3.473-5.017-5.789c-1.288-2.316-1.93-5.171-1.93-8.567
	c0-3.91,0.796-7.279,2.393-10.111c1.595-2.83,3.678-5.145,6.252-6.947c2.571-1.799,5.504-3.138,8.799-4.014
	c3.325-0.878,6.75-1.319,10.188-1.312c5.249,0,10.316,1.03,15.205,3.087c4.887,2.06,8.669,5.043,11.346,8.953L316.181,68.549z"/>
<path d="M373.294,61.911h-19.45v38.013c0,4.411,0.822,7.566,2.471,9.465c1.646,1.897,4.27,2.846,7.873,2.846
	c1.336,0,2.777-0.141,4.321-0.424s2.933-0.707,4.168-1.274l0.464,11.886c-1.752,0.618-3.682,1.105-5.789,1.467
	c-2.168,0.365-4.363,0.545-6.562,0.541c-6.896,0-12.171-1.904-15.822-5.712c-3.653-3.806-5.479-9.518-5.479-17.135V61.911H325.44
	V50.025h14.046V29.031h14.356v20.994h19.45L373.294,61.911L373.294,61.911z"/>
<path d="M408.334,107.449h0.311l20.222-57.424h15.437l-35.504,90.458c-1.234,3.088-2.574,5.84-4.014,8.26
	c-1.442,2.416-3.141,4.477-5.095,6.174c-1.956,1.698-4.244,3.011-6.869,3.938c-2.624,0.927-5.737,1.39-9.339,1.39
	c-1.545,0-3.114-0.077-4.709-0.231c-1.639-0.162-3.264-0.446-4.861-0.85l1.389-12.812c2.471,0.822,4.887,1.234,7.256,1.234
	c3.807,0,6.639-1.057,8.49-3.164c1.852-2.109,3.551-5.121,5.094-9.031l4.632-12.195l-31.337-73.168h16.209L408.334,107.449
	L408.334,107.449z M465.449,123.193h-14.51V6.494h14.51V123.193z M551.431,85.992v2.47c0,0.825-0.053,1.647-0.153,2.47H493.08
	c0.102,3.068,0.796,5.955,2.084,8.661c1.253,2.663,3.009,5.058,5.172,7.054c2.161,1.992,4.654,3.549,7.486,4.674
	c2.829,1.123,5.84,1.686,9.029,1.686c4.939,0,9.209-1.081,12.812-3.242c3.602-2.16,6.431-4.785,8.49-7.873l10.188,8.182
	c-3.913,5.186-8.517,9.004-13.815,11.455c-5.302,2.447-11.191,3.673-17.676,3.673c-5.557,0-10.704-0.927-15.437-2.779
	c-4.734-1.853-8.799-4.45-12.194-7.795c-3.396-3.343-6.073-7.383-8.026-12.118c-1.956-4.732-2.934-9.98-2.934-15.744
	c0-5.66,0.952-10.884,2.86-15.668c1.907-4.785,4.562-8.876,7.967-12.272c3.404-3.396,7.426-6.044,12.066-7.95
	c4.641-1.903,9.641-2.856,15.005-2.856c5.361,0,10.233,0.875,14.619,2.625c4.383,1.751,8.095,4.271,11.139,7.564
	c3.041,3.294,5.389,7.282,7.038,11.963C550.605,74.854,551.431,80.126,551.431,85.992L551.431,85.992z M536.611,80.126
	c-0.104-2.88-0.594-5.582-1.467-8.104c-0.875-2.521-2.16-4.708-3.858-6.561c-1.698-1.852-3.81-3.319-6.329-4.399
	c-2.523-1.081-5.48-1.621-8.876-1.621c-3.088,0-5.996,0.54-8.722,1.621c-2.729,1.081-5.096,2.547-7.102,4.399
	c-2.007,1.853-3.653,4.04-4.939,6.561c-1.288,2.523-2.033,5.225-2.238,8.104H536.611z"/>
<g>
	<path d="M577.488,92.475c-0.562-0.777-1.326-1.414-2.29-1.91c-0.964-0.494-2.049-0.742-3.255-0.742
		c-0.644,0-1.292,0.087-1.948,0.261s-1.252,0.456-1.788,0.844s-0.971,0.871-1.306,1.446c-0.335,0.576-0.503,1.266-0.503,2.068
		c0,0.777,0.153,1.427,0.463,1.949c0.308,0.522,0.724,0.965,1.244,1.326c0.522,0.362,1.14,0.67,1.85,0.924
		c0.709,0.256,1.467,0.517,2.27,0.784c0.965,0.295,1.942,0.63,2.935,1.005c0.989,0.375,1.888,0.87,2.69,1.485
		c0.811,0.624,1.481,1.411,1.97,2.31c0.509,0.924,0.764,2.096,0.764,3.517c0,1.474-0.275,2.752-0.823,3.837
		c-0.521,1.049-1.269,1.969-2.189,2.691c-0.91,0.711-1.963,1.239-3.153,1.588c-1.194,0.348-2.433,0.523-3.677,0.521
		c-1.795,0-3.529-0.348-5.203-1.044s-3.061-1.728-4.158-3.094l3.094-2.611c0.669,0.991,1.567,1.794,2.692,2.411
		s2.343,0.924,3.656,0.924c0.669,0,1.339-0.094,2.009-0.281c0.657-0.182,1.277-0.48,1.828-0.884
		c0.549-0.402,1.007-0.916,1.346-1.507c0.348-0.604,0.521-1.332,0.521-2.189c0-0.856-0.181-1.572-0.543-2.148
		c-0.375-0.59-0.876-1.091-1.466-1.467c-0.672-0.429-1.394-0.772-2.149-1.024c-0.861-0.296-1.726-0.583-2.592-0.864
		c-0.917-0.27-1.816-0.599-2.691-0.983c-0.86-0.374-1.66-0.875-2.37-1.487c-0.71-0.619-1.284-1.378-1.688-2.229
		c-0.429-0.885-0.643-1.982-0.643-3.295c0-1.418,0.287-2.638,0.863-3.655c0.557-0.997,1.325-1.86,2.25-2.531
		c0.944-0.679,2.007-1.176,3.134-1.466c1.146-0.306,2.329-0.461,3.516-0.462c1.661,0,3.215,0.295,4.661,0.884
		s2.611,1.379,3.495,2.37L577.488,92.475L577.488,92.475z M598.099,99.706h-5.062v9.894c0,1.148,0.215,1.969,0.644,2.463
		s1.111,0.742,2.05,0.742c0.348,0,0.724-0.037,1.125-0.111c0.4-0.072,0.764-0.184,1.085-0.332l0.119,3.095
		c-0.49,0.169-0.994,0.297-1.507,0.381c-0.563,0.095-1.135,0.143-1.707,0.142c-1.795,0-3.168-0.496-4.117-1.486
		c-0.951-0.991-1.428-2.477-1.428-4.46V99.706h-3.656v-3.095h3.656v-5.463h3.736v5.463h5.062V99.706L598.099,99.706z
		 M624.294,106.094c0,1.473-0.261,2.826-0.783,4.059c-0.5,1.199-1.237,2.286-2.169,3.193c-0.941,0.908-2.055,1.618-3.273,2.09
		c-1.261,0.496-2.612,0.744-4.06,0.744s-2.799-0.248-4.058-0.744c-1.26-0.496-2.344-1.191-3.255-2.09
		c-0.921-0.912-1.651-1.998-2.149-3.193c-0.521-1.231-0.783-2.584-0.783-4.059c0-1.474,0.263-2.818,0.783-4.037
		c0.499-1.185,1.229-2.257,2.149-3.154c0.911-0.885,1.995-1.573,3.255-2.069c1.259-0.495,2.611-0.743,4.058-0.743
		c1.447,0,2.799,0.248,4.06,0.743c1.216,0.47,2.328,1.173,3.273,2.069c0.93,0.893,1.668,1.966,2.169,3.154
		C624.033,103.275,624.294,104.621,624.294,106.094z M620.357,106.114c0-0.908-0.143-1.776-0.425-2.604
		c-0.266-0.799-0.683-1.541-1.229-2.183c-0.551-0.637-1.23-1.149-1.995-1.502c-0.793-0.374-1.7-0.562-2.721-0.562
		c-1.021,0-1.93,0.188-2.722,0.562c-0.765,0.353-1.444,0.864-1.995,1.502c-0.545,0.642-0.963,1.384-1.229,2.183
		c-0.284,0.839-0.427,1.719-0.423,2.604c0,0.907,0.141,1.776,0.423,2.604c0.269,0.805,0.686,1.552,1.229,2.203
		c0.546,0.647,1.227,1.167,1.995,1.522c0.792,0.373,1.699,0.561,2.722,0.561c1.021,0,1.928-0.188,2.721-0.561
		c0.769-0.355,1.449-0.875,1.995-1.522c0.543-0.651,0.959-1.398,1.229-2.203C620.218,107.879,620.361,107,620.357,106.114z
		 M632.489,98.741c-0.021-0.711-0.061-1.421-0.12-2.13h3.576c0.053,0.482,0.093,1.039,0.12,1.668c0.025,0.63,0.04,1.146,0.04,1.547
		h0.12c0.535-1.125,1.318-2.029,2.351-2.712c1.031-0.683,2.189-1.024,3.476-1.024c0.589,0,1.085,0.055,1.486,0.161l-0.16,3.496
		c-0.565-0.138-1.146-0.205-1.728-0.201c-0.911,0-1.701,0.168-2.371,0.502c-0.649,0.318-1.22,0.778-1.667,1.347
		c-0.452,0.579-0.786,1.241-0.984,1.948c-0.217,0.751-0.324,1.528-0.321,2.31v10.005h-3.776V100.71
		C632.526,100.054,632.513,99.396,632.489,98.741z M667.163,105.973v0.644c0,0.215-0.014,0.429-0.04,0.643h-15.146
		c0.026,0.798,0.207,1.55,0.543,2.255c0.335,0.703,0.782,1.316,1.346,1.834c0.562,0.519,1.212,0.924,1.949,1.217
		c0.735,0.293,1.52,0.438,2.35,0.438c1.286,0,2.396-0.28,3.335-0.844s1.674-1.245,2.21-2.05l2.651,2.13
		c-1.019,1.35-2.216,2.343-3.597,2.98c-1.38,0.638-2.913,0.956-4.601,0.956c-1.446,0-2.785-0.24-4.019-0.723
		c-1.231-0.482-2.289-1.158-3.174-2.029c-0.884-0.869-1.581-1.921-2.089-3.154c-0.51-1.23-0.764-2.598-0.764-4.098
		c0-1.473,0.248-2.833,0.744-4.078c0.497-1.244,1.188-2.31,2.073-3.193c0.887-0.885,1.934-1.573,3.142-2.069
		c1.208-0.495,2.509-0.743,3.905-0.743c1.396,0,2.664,0.229,3.805,0.684c1.103,0.43,2.093,1.102,2.898,1.969
		c0.791,0.857,1.402,1.895,1.832,3.113C666.948,103.074,667.163,104.445,667.163,105.973z M663.307,104.445
		c-0.021-0.717-0.15-1.428-0.382-2.108c-0.214-0.632-0.556-1.214-1.005-1.708c-0.441-0.482-0.991-0.863-1.646-1.145
		c-0.656-0.281-1.427-0.422-2.311-0.422c-0.804,0-1.561,0.141-2.271,0.422s-1.325,0.662-1.849,1.145
		c-0.522,0.482-0.951,1.053-1.286,1.708c-0.335,0.656-0.532,1.374-0.582,2.108H663.307z"/>
</g>
<g>
	<path d="M39.871,110.168v3.861H15.652v8.853h-3.394v-21.567h3.394v8.854H39.871z M24.193,91.799c-0.91-0.441-1.69-1.195-2.34-2.262
		c-0.65-1.064-0.976-2.262-0.976-3.588c0-1.195,0.202-2.223,0.604-3.081c0.377-0.824,0.93-1.556,1.619-2.145
		c0.697-0.583,1.507-1.014,2.379-1.268c0.91-0.273,1.885-0.409,2.925-0.409H39.87v3.666H29.628c-0.756,0-1.473,0.059-2.15,0.175
		c-0.678,0.117-1.276,0.332-1.798,0.644c-0.522,0.312-0.938,0.734-1.251,1.268s-0.47,1.229-0.47,2.086
		c0,1.457,0.554,2.652,1.662,3.588c1.107,0.937,2.587,1.404,4.438,1.404h9.812v3.666H10.387v-3.666h13.807L24.193,91.799
		L24.193,91.799z M30.472,52.643h0.624c0.208,0,0.417,0.013,0.624,0.039v14.703c0.758-0.021,1.503-0.201,2.188-0.527
		c0.672-0.316,1.278-0.76,1.782-1.306c1.043-1.139,1.617-2.629,1.607-4.174c0-1.248-0.272-2.326-0.818-3.237
		c-0.547-0.91-1.209-1.625-1.989-2.145l2.066-2.574c1.311,0.988,2.275,2.151,2.895,3.49c0.618,1.339,0.928,2.828,0.928,4.465
		c0,1.404-0.233,2.705-0.702,3.9c-0.468,1.196-1.124,2.223-1.969,3.081s-1.866,1.535-3.062,2.028
		c-1.196,0.494-2.522,0.741-3.979,0.741c-1.43,0-2.749-0.241-3.958-0.723s-2.243-1.153-3.101-2.013
		c-0.866-0.873-1.549-1.909-2.009-3.049c-0.48-1.172-0.722-2.436-0.722-3.791c0-1.355,0.222-2.586,0.663-3.694
		c0.417-1.07,1.07-2.032,1.911-2.814c0.832-0.769,1.84-1.361,3.022-1.778C27.658,52.852,28.99,52.643,30.472,52.643z M28.99,56.387
		c-0.728,0.026-1.41,0.15-2.048,0.371c-0.614,0.208-1.178,0.54-1.657,0.975c-0.481,0.447-0.86,0.993-1.111,1.599
		c-0.273,0.638-0.41,1.385-0.41,2.243c0,0.78,0.137,1.515,0.41,2.204c0.256,0.662,0.633,1.27,1.111,1.794
		c0.474,0.511,1.035,0.934,1.657,1.248c0.638,0.325,1.32,0.514,2.048,0.565V56.387z"/>
</g>
<g>
	<path fill="#F27F20" d="M-23.512,158.389c0,3.644-2.955,6.6-6.6,6.6H-181.9c-3.645,0-6.6-2.956-6.6-6.6V6.6
		c0-3.645,2.955-6.6,6.6-6.6h151.789c3.645,0,6.6,2.955,6.6,6.6V158.389z"/>
	<g>
		<path fill="#FFFFFF" d="M-61.616,96.646c-0.055,0.115-0.116,0.23-0.18,0.347c-1.561,2.835-3.64,5.156-6.228,6.966
			c-0.415,0.29-0.84,0.568-1.279,0.832c-2.272,1.376-4.805,2.392-7.589,3.053c-0.546,0.129-1.096,0.245-1.65,0.347
			c-0.157,0.038-0.313,0.069-0.476,0.092h-41.141v-0.005c-0.106,0-0.212,0.005-0.323,0.005c-6.546,0-11.558-1.806-15.022-5.422
			c-3.475-3.618-5.207-9.043-5.207-16.275V48.912h-11.523V37.626h11.523v-0.004h13.633v47.387c0,4.19,0.78,7.187,2.346,8.989
			c1.344,1.553,3.391,2.435,6.116,2.647H-61.616z"/>
		<path fill="#FFFFFF" d="M-97.49,51.476c-0.729,1.127-1.1,2.518-1.1,4.181c0,2.929,1.321,5.104,3.959,6.523
			c2.637,1.418,6.596,2.712,11.872,3.885c3.321,0.781,6.403,1.709,9.239,2.786c2.832,1.076,5.298,2.416,7.4,4.027
			c2.102,1.611,3.738,3.542,4.911,5.793c1.173,2.249,1.76,4.886,1.76,7.913c0,3.94-0.726,7.294-2.167,10.062
			c-0.055,0.115-0.116,0.23-0.18,0.347c-1.561,2.835-3.64,5.156-6.228,6.966c-0.415,0.29-0.84,0.568-1.279,0.832
			c-2.272,1.376-4.805,2.392-7.589,3.053c-0.546,0.129-1.096,0.245-1.65,0.347c-0.157,0.038-0.313,0.069-0.476,0.092h-15.761
			c-2.647-0.513-5.257-1.294-7.839-2.345c-4.999-2.039-9.156-5.135-12.459-9.291h20.858c2.314,0.823,4.767,1.229,7.358,1.229
			c1.759,0,3.445-0.171,5.058-0.514c0.841-0.18,1.64-0.415,2.401-0.715c0.699-0.273,1.364-0.597,1.996-0.972
			c1.318-0.779,2.366-1.805,3.151-3.079c0.781-1.268,1.174-2.879,1.174-4.838c0-3.225-1.539-5.617-4.621-7.184
			c-3.076-1.561-7.598-3.026-13.558-4.398c-2.346-0.586-4.716-1.292-7.109-2.124c-2.397-0.828-4.569-1.977-6.523-3.447
			c-1.958-1.464-3.543-3.297-4.768-5.498c-1.219-2.197-1.83-4.91-1.83-8.134c0-3.709,0.753-6.911,2.273-9.6
			c1.511-2.688,3.492-4.887,5.936-6.596c2.439-1.709,5.225-2.98,8.357-3.812c3.123-0.831,6.352-1.247,9.674-1.247
			c0.184,0,13.839,0.009,14.02,0.013v10.861c-0.323-0.015-14.126-0.028-14.458-0.028c-1.566,0-3.133,0.17-4.694,0.513
			c-1.562,0.346-2.957,0.882-4.176,1.612C-95.781,49.425-96.756,50.354-97.49,51.476z"/>
		<circle fill="#FFFFFF" cx="-87.263" cy="122.265" r="7.334"/>
		<circle fill="#FFFFFF" cx="-115.161" cy="122.265" r="7.334"/>
	</g>
</g>
</svg>
