<svg xmlns="http://www.w3.org/2000/svg" width="792" height="612"><path d="M536.64 0H255.361C164.181 0 90 74.181 90 165.361V446.64C90 537.819 164.181 612 255.361 612H536.64C627.819 612 702 537.819 702 446.64V165.361C702 74.181 627.819 0 536.64 0zm115.917 446.64c0 63.917-51.999 115.917-115.917 115.917H255.361c-63.917 0-115.918-51.999-115.918-115.917V165.361c0-63.917 52-115.918 115.918-115.918H536.64c63.917 0 115.917 52 115.917 115.918V446.64z"/><path d="M588.464 156.257c-6.337-4.639-14.826-5.034-21.598-1.085-6.751 3.968-21.716 5.922-33.719 7.501-2.487.336-4.936.652-7.305.987-16.801-13.938-38.26-21.755-60.391-21.755-49.849 0-90.754 38.576-93.656 87.101-45.209-7.62-86.608-31.192-115.944-66.609-4.363-5.291-11.134-7.877-17.965-6.988a19.707 19.707 0 0 0-15.339 11.628c-1.264 2.882-12.279 29.988-12.279 97.032 0 58.061 45.821 100.723 77.25 123.17-21.499 9.772-46.275 13.365-69.808 10.759-9.2-.986-17.807 4.423-20.847 13.089a19.762 19.762 0 0 0 8.094 23.236c37.115 23.414 80.014 35.792 124.078 35.792 141.511 0 227.15-111.166 230.329-220.773 4.067-5.903 11.825-17.393 24.935-37.549 5.251-8.114 9.653-25.605 11.806-35.298 1.717-7.662-1.304-15.618-7.641-20.238zm-64.714 75.138a19.789 19.789 0 0 0-3.751 11.569c0 77.922-59.245 187.667-190.944 187.667-11.904 0-23.71-1.086-35.279-3.218 15.438-5.844 30.027-13.997 43.432-24.322 5.37-4.126 8.232-10.76 7.601-17.491a19.718 19.718 0 0 0-10.74-15.754c-.849-.435-84.298-44.321-84.298-105.758 0-20.591 1.105-36.779 2.566-49.098 38.753 33.364 88.069 53.323 139.97 55.889.395.02.81.04 1.185.02 11.49-.335 19.94-8.766 19.94-19.742 0-2.724-.554-5.311-1.561-7.679a54.315 54.315 0 0 1-.75-8.924c0-29.316 24.362-53.165 54.33-53.165 15.043 0 29.515 6.16 39.721 16.879 4.659 4.857 11.47 7.048 18.044 5.765 4.481-.849 9.654-1.52 15.083-2.23 1.935-.257 3.89-.513 5.883-.79-14.826 22.584-20.175 30.027-20.432 30.382z"/></svg>
